<?xml version="1.0" standalone="no"?>
<!DOCTYPE svg PUBLIC "-//W3C//DTD SVG 20010904//EN"
 "http://www.w3.org/TR/2001/REC-SVG-20010904/DTD/svg10.dtd">
<svg version="1.0" xmlns="http://www.w3.org/2000/svg"
 width="1000.000000pt" height="1000.000000pt" viewBox="0 0 1000.000000 1000.000000"
 preserveAspectRatio="xMidYMid meet">
<metadata>
Created by potrace 1.11, written by Peter Selinger 2001-2013
</metadata>
<g transform="translate(0.000000,1000.000000) scale(0.100000,-0.100000)"
fill="#000000" stroke="none">
<path d="M3930 9935 c-7 -9 -19 -14 -27 -11 -7 3 -13 1 -13 -4 0 -6 -11 -10
-24 -10 -13 0 -27 -8 -30 -17 -5 -12 -10 -13 -18 -5 -12 12 -38 -7 -38 -28 0
-6 -3 -9 -7 -7 -5 3 -19 1 -32 -4 -16 -6 -21 -14 -17 -25 5 -14 4 -15 -8 -5
-11 9 -23 8 -53 -5 -21 -9 -41 -16 -45 -16 -5 1 -8 -5 -8 -14 0 -8 -4 -13 -9
-9 -5 3 -16 -2 -24 -10 -9 -8 -23 -15 -32 -15 -11 0 -15 -5 -12 -14 4 -10 0
-14 -12 -11 -10 2 -24 -5 -32 -16 -7 -10 -19 -19 -26 -19 -7 0 -13 -4 -13 -10
0 -5 -7 -10 -15 -10 -8 0 -15 -4 -15 -10 0 -5 -6 -10 -14 -10 -8 0 -16 -7 -20
-15 -3 -8 -10 -14 -15 -13 -15 4 -71 -35 -71 -49 0 -6 -9 -15 -21 -18 -22 -7
-99 -79 -99 -92 0 -13 -153 -158 -163 -155 -4 1 -6 -2 -3 -7 3 -5 -19 -35 -50
-67 -30 -33 -55 -61 -55 -64 1 -3 -10 -17 -24 -32 -14 -14 -25 -29 -25 -32 0
-3 -13 -20 -30 -37 -16 -17 -35 -44 -42 -60 -7 -16 -16 -29 -20 -29 -5 0 -8
-7 -8 -16 0 -8 -5 -12 -10 -9 -6 3 -13 -2 -17 -12 -4 -10 -17 -29 -30 -43 -13
-14 -23 -30 -23 -37 0 -7 -3 -13 -8 -13 -4 0 -13 -14 -20 -30 -8 -17 -18 -28
-23 -24 -5 3 -9 -3 -9 -13 0 -10 -9 -25 -19 -33 -11 -7 -18 -17 -15 -22 3 -4
0 -8 -6 -8 -6 0 -8 -4 -5 -10 3 -5 1 -10 -6 -10 -7 0 -10 -3 -6 -6 3 -3 -3
-15 -14 -27 -10 -11 -19 -27 -19 -34 0 -7 -5 -13 -11 -13 -5 0 -7 -5 -4 -10 3
-6 -1 -13 -10 -16 -9 -4 -14 -13 -11 -21 3 -7 -1 -16 -8 -19 -8 -3 -20 -19
-26 -35 -7 -16 -17 -26 -23 -22 -5 3 -7 1 -3 -5 3 -6 -1 -17 -9 -26 -9 -8 -14
-18 -13 -20 2 -3 -6 -16 -17 -28 -10 -13 -18 -24 -17 -25 7 -9 0 -23 -8 -18
-6 3 -7 -1 -4 -9 3 -9 1 -16 -6 -16 -6 0 -9 -4 -5 -9 3 -5 0 -15 -7 -23 -7 -7
-13 -19 -14 -25 -2 -30 -5 -34 -14 -28 -6 3 -7 -1 -4 -9 3 -9 2 -16 -4 -16 -5
0 -8 -11 -7 -25 2 -14 0 -23 -5 -20 -8 5 -21 -17 -27 -49 -2 -11 -8 -25 -14
-32 -6 -7 -8 -17 -5 -23 3 -5 -1 -12 -10 -15 -9 -4 -14 -13 -10 -21 3 -8 0
-15 -7 -15 -9 0 -8 -3 1 -9 11 -7 10 -9 -3 -15 -10 -3 -13 -11 -8 -18 11 -19
13 -39 2 -32 -5 3 -6 10 -3 16 4 6 2 8 -4 5 -11 -8 -11 -25 1 -44 5 -9 3 -11
-6 -7 -8 3 -18 0 -23 -7 -5 -8 -3 -10 7 -4 8 5 4 -3 -8 -16 -22 -24 -22 -26
-5 -43 15 -15 15 -16 0 -11 -11 4 -20 -1 -28 -14 -6 -12 -8 -21 -4 -21 3 0 1
-7 -6 -15 -7 -8 -10 -22 -6 -30 3 -9 2 -13 -4 -10 -9 6 -14 -8 -11 -27 0 -5
-4 -8 -10 -8 -6 0 -9 -9 -6 -20 3 -10 1 -20 -3 -22 -4 -2 -10 -27 -13 -56 -4
-33 -2 -50 4 -46 6 3 8 12 5 20 -3 7 -2 16 3 18 15 10 8 -29 -11 -53 -10 -13
-18 -30 -18 -38 0 -8 -4 -11 -10 -8 -5 3 -10 -3 -10 -14 0 -12 -4 -21 -9 -21
-5 0 -13 -15 -16 -32 -4 -18 -13 -36 -19 -40 -7 -5 -6 -8 3 -8 11 0 9 -4 -5
-15 -10 -8 -14 -15 -7 -15 9 0 7 -13 -7 -44 -10 -24 -17 -46 -15 -48 2 -2 -15
-5 -38 -7 -23 -1 -50 -3 -59 -4 -10 -1 -18 -5 -18 -9 0 -4 -10 -5 -22 -3 -12
3 -27 0 -34 -6 -7 -6 -18 -8 -24 -4 -5 3 -10 1 -10 -4 0 -6 -3 -10 -7 -10 -5
1 -10 0 -13 -1 -5 -2 -29 -7 -52 -13 -7 -1 -18 -6 -24 -9 -6 -4 -21 -6 -32 -3
-13 2 -21 -1 -19 -8 1 -7 -8 -11 -21 -11 -12 1 -22 -3 -22 -9 0 -6 -3 -7 -7
-4 -3 4 -13 1 -21 -6 -13 -10 -14 -9 -7 3 6 11 3 10 -12 -3 -11 -9 -23 -14
-26 -10 -4 3 -7 0 -7 -8 0 -11 -2 -11 -10 1 -7 11 -10 11 -10 2 0 -7 -4 -11
-9 -8 -5 3 -12 -1 -15 -10 -3 -9 -12 -14 -18 -12 -7 3 -19 -1 -26 -8 -7 -8
-30 -18 -52 -24 -21 -6 -41 -16 -43 -23 -4 -8 -6 -8 -6 2 -1 11 -6 10 -21 -4
-11 -10 -20 -15 -20 -11 0 10 -61 -25 -78 -44 -11 -12 -12 -12 -6 -1 4 9 -6 6
-24 -8 -18 -12 -32 -19 -32 -15 0 4 -7 -1 -16 -12 -8 -10 -13 -12 -9 -4 4 8
-1 6 -9 -4 -9 -11 -16 -16 -16 -10 -1 5 -8 0 -18 -11 -9 -11 -21 -20 -27 -21
-33 -4 -53 -17 -48 -32 4 -10 3 -14 -2 -10 -8 8 -64 -22 -96 -52 -36 -32 -47
-39 -53 -33 -3 4 -6 -2 -6 -13 0 -15 -2 -16 -9 -5 -7 11 -10 9 -16 -8 -3 -12
-11 -19 -16 -16 -5 4 -12 -1 -15 -9 -3 -9 -13 -16 -21 -16 -8 0 -11 -4 -8 -10
3 -5 2 -10 -3 -10 -12 0 -117 -104 -114 -113 1 -5 -1 -6 -6 -3 -10 6 -43 -30
-35 -38 4 -3 -2 -6 -12 -6 -10 0 -16 -3 -13 -6 4 -3 -14 -26 -38 -52 -25 -25
-42 -52 -40 -59 3 -7 -2 -13 -11 -13 -13 0 -13 -3 -3 -15 11 -13 10 -14 -5 -8
-14 5 -17 3 -12 -10 4 -11 2 -14 -9 -10 -9 3 -14 -1 -14 -11 0 -9 -9 -26 -20
-38 -10 -12 -17 -26 -13 -31 4 -6 1 -7 -6 -3 -8 5 -14 0 -18 -13 -3 -12 -9
-21 -14 -21 -5 0 -9 -9 -9 -21 0 -11 -5 -17 -10 -14 -6 3 -10 -1 -10 -9 0 -9
-4 -16 -10 -16 -5 0 -9 -3 -8 -7 4 -14 -13 -53 -23 -53 -5 0 -8 -3 -7 -7 2
-11 -14 -67 -21 -73 -3 -3 -12 -16 -19 -29 -11 -19 -11 -22 0 -16 7 3 5 0 -6
-9 -10 -8 -15 -19 -12 -24 3 -5 -1 -22 -9 -38 -7 -16 -16 -40 -19 -54 -18 -82
-31 -120 -40 -120 -6 0 -4 -5 4 -10 8 -5 10 -10 3 -10 -6 0 -10 -8 -9 -17 2
-9 0 -33 -4 -52 -3 -20 -3 -49 1 -64 6 -22 5 -26 -5 -18 -8 7 -12 5 -12 -10 0
-10 4 -19 8 -19 5 0 4 -8 -1 -18 -6 -10 -6 -24 -1 -32 5 -8 6 -19 2 -25 -9
-14 -9 -37 1 -57 4 -10 4 -18 -2 -18 -9 0 -5 -85 5 -102 3 -4 -1 -8 -8 -8 -8
0 -9 -3 -3 -8 6 -4 10 -23 10 -42 0 -19 4 -38 10 -42 6 -5 6 -8 -2 -8 -9 0
-10 -7 -3 -26 7 -16 7 -23 0 -19 -10 6 -3 -21 10 -40 4 -5 8 -17 8 -25 1 -8 3
-31 4 -50 2 -19 7 -38 12 -42 6 -4 4 -13 -4 -23 -7 -9 -9 -15 -4 -14 5 1 16 1
24 0 13 -1 13 -2 0 -11 -9 -6 -11 -13 -5 -17 6 -5 11 -17 13 -28 2 -11 6 -27
9 -35 3 -8 7 -25 9 -38 1 -13 9 -31 16 -40 11 -13 11 -15 -2 -8 -12 6 -11 5 1
-6 9 -7 15 -23 14 -35 -1 -13 2 -23 7 -23 4 0 8 -10 8 -23 0 -13 6 -29 13 -35
6 -7 12 -16 13 -20 3 -28 27 -94 40 -107 8 -8 12 -15 8 -15 -3 0 -1 -6 5 -13
6 -8 7 -18 3 -22 -4 -5 -2 -5 4 -2 13 8 27 -20 18 -34 -3 -5 0 -9 6 -9 7 0 9
-7 6 -16 -3 -8 -2 -12 4 -9 6 3 14 -4 19 -17 5 -13 25 -46 44 -75 19 -28 41
-65 48 -82 8 -17 17 -31 21 -31 5 0 8 -6 8 -13 0 -7 9 -23 20 -35 12 -12 17
-22 13 -22 -4 0 0 -5 9 -11 10 -5 18 -17 18 -24 0 -8 5 -15 12 -15 6 0 9 -3 5
-6 -3 -3 5 -16 19 -29 13 -12 24 -27 24 -34 0 -6 5 -11 10 -11 6 0 10 -5 10
-11 0 -7 10 -21 23 -33 12 -12 36 -38 53 -59 17 -20 34 -34 37 -30 4 3 7 1 7
-6 0 -7 7 -19 15 -27 8 -8 18 -20 22 -27 12 -18 77 -74 68 -58 -6 10 -4 12 6
5 8 -5 17 -9 21 -9 3 0 10 -4 15 -9 5 -5 2 -6 -6 -1 -11 6 -13 3 -8 -16 4 -13
7 -28 7 -34 0 -5 5 -3 10 5 8 13 10 12 10 -2 0 -10 5 -18 10 -18 6 0 10 -7 10
-15 0 -8 7 -15 16 -15 8 0 13 -4 10 -8 -2 -4 9 -17 25 -27 16 -11 29 -26 29
-33 0 -7 4 -10 10 -7 5 3 12 -6 16 -20 3 -13 10 -23 14 -20 4 2 20 -7 34 -20
15 -14 30 -25 34 -25 3 0 15 -9 27 -20 42 -41 93 -80 104 -80 7 0 9 -4 6 -10
-3 -5 -1 -10 6 -10 19 0 5 -10 -21 -15 -21 -4 -49 -31 -50 -47 0 -5 -5 -8 -11
-8 -5 0 -7 6 -3 13 4 6 -9 -3 -29 -22 -29 -27 -34 -37 -25 -48 9 -11 8 -13 -3
-11 -10 2 -13 -4 -11 -22 5 -31 31 -62 46 -53 6 4 5 -1 -3 -10 -12 -15 -11
-17 5 -18 18 0 18 -1 -1 -9 -11 -5 -14 -9 -7 -9 7 -1 10 -6 6 -13 -4 -6 -3 -8
4 -4 6 3 19 -5 30 -19 14 -17 22 -21 25 -13 4 10 6 10 6 1 1 -7 8 -13 16 -13
33 0 98 -47 87 -64 -3 -6 -7 -15 -7 -21 0 -5 -7 -9 -15 -8 -8 1 -26 -7 -40
-18 -14 -11 -19 -17 -11 -13 10 5 12 3 6 -5 -4 -7 -15 -11 -25 -8 -14 4 -17 0
-13 -12 4 -9 3 -13 -2 -9 -5 5 -26 -11 -47 -34 -24 -26 -37 -35 -33 -23 6 19
6 19 -5 1 -19 -28 -54 -61 -63 -58 -5 1 -6 -1 -3 -6 3 -5 -4 -16 -15 -26 -12
-9 -18 -24 -15 -32 3 -8 1 -14 -3 -14 -5 0 -8 -13 -7 -29 1 -17 -1 -28 -5 -25
-4 2 -7 -5 -6 -16 1 -11 4 -20 7 -20 3 0 7 -12 8 -27 1 -16 7 -30 12 -31 6 -2
8 -7 5 -12 -3 -4 8 -21 24 -36 36 -37 61 -56 61 -49 0 3 11 -2 25 -11 14 -9
25 -13 25 -9 0 4 6 3 13 -2 6 -5 22 -8 35 -7 12 0 22 -3 22 -7 0 -5 3 -8 7 -7
5 1 20 -2 34 -6 14 -4 32 -8 40 -9 8 -2 19 -6 26 -10 6 -4 14 -1 16 5 4 9 8 9
14 3 4 -5 17 -11 28 -12 11 -2 45 -5 75 -9 30 -3 97 -7 147 -8 51 0 93 -5 93
-10 0 -5 8 -2 17 5 11 10 14 10 9 1 -4 -6 -3 -12 3 -12 5 0 12 6 15 13 5 9 7
9 12 -1 4 -9 9 -10 19 -2 9 8 15 8 20 0 3 -6 12 -7 18 -3 7 4 30 8 52 10 63 4
90 9 104 18 10 6 12 4 6 -4 -6 -10 -3 -11 14 -2 12 7 26 9 31 6 6 -3 10 0 10
7 0 9 3 9 10 -2 5 -8 10 -10 10 -5 0 6 19 11 43 12 59 4 67 5 67 14 0 4 12 7
28 8 55 1 62 2 56 13 -4 6 1 8 13 4 11 -4 36 0 55 8 20 9 38 12 42 9 3 -4 6
-1 6 7 0 10 4 10 17 -1 9 -8 14 -9 11 -4 -4 6 5 15 18 22 13 6 22 7 18 2 -3
-5 -1 -9 4 -9 6 0 12 7 16 15 3 8 9 15 13 14 15 -3 74 14 79 22 3 5 10 7 15 4
5 -4 9 -1 9 5 0 7 7 9 16 6 8 -3 12 -2 9 4 -11 18 51 11 112 -12 32 -12 60
-24 63 -28 6 -6 29 -12 48 -13 6 0 12 -5 12 -10 0 -5 6 -7 14 -4 7 3 23 -1 35
-9 12 -8 26 -12 31 -9 6 3 10 1 10 -5 0 -7 7 -10 15 -6 8 3 15 1 15 -5 0 -6 4
-8 9 -5 4 3 24 -3 44 -13 20 -10 34 -15 31 -10 -3 5 0 9 5 9 6 0 11 -5 11 -10
0 -6 3 -9 8 -8 4 1 21 -4 37 -11 17 -7 35 -14 40 -15 6 -2 30 -8 55 -15 25 -7
47 -13 50 -13 3 0 10 -4 17 -10 7 -5 16 -7 22 -4 5 3 12 -1 15 -10 5 -13 9
-14 20 -5 11 9 15 9 18 0 2 -6 13 -12 23 -13 19 -2 32 -6 83 -27 13 -5 33 -9
46 -9 12 0 26 -3 30 -7 3 -4 16 -8 28 -10 12 -2 26 -9 30 -16 6 -9 8 -9 8 2 0
10 3 11 14 2 7 -6 25 -12 40 -13 14 -1 26 -5 26 -9 0 -4 11 -6 25 -4 14 1 28
-2 31 -7 3 -5 12 -7 19 -4 7 2 21 -1 31 -9 15 -10 16 -16 6 -27 -6 -8 -8 -18
-4 -22 4 -4 0 -6 -8 -4 -8 1 -14 -2 -13 -9 2 -6 -7 -15 -18 -18 -11 -4 -18
-12 -17 -17 2 -6 -13 -28 -34 -50 -20 -21 -35 -38 -32 -38 3 0 -7 -12 -21 -27
-14 -15 -25 -31 -25 -36 0 -4 -4 -5 -10 -2 -6 3 -7 -1 -4 -9 4 -10 -1 -18 -11
-22 -9 -4 -14 -13 -11 -20 3 -9 -1 -11 -12 -7 -9 3 -14 3 -10 -2 4 -4 -7 -28
-24 -53 -17 -25 -31 -51 -31 -58 0 -7 -7 -10 -15 -6 -10 3 -13 1 -9 -5 4 -6 1
-18 -7 -26 -8 -8 -12 -17 -9 -21 4 -3 1 -6 -5 -6 -7 0 -12 -7 -12 -15 0 -8 -5
-15 -11 -15 -5 0 -7 -5 -4 -10 3 -6 2 -10 -3 -10 -5 0 -13 -8 -16 -17 -10 -29
-33 -64 -42 -66 -5 -1 -8 -6 -6 -10 1 -4 -7 -18 -18 -30 -12 -12 -23 -32 -26
-44 -4 -13 -10 -23 -14 -23 -5 0 -11 -13 -15 -29 -3 -16 -13 -32 -22 -35 -9
-4 -13 -9 -10 -13 4 -3 1 -13 -5 -21 -7 -8 -13 -21 -14 -30 -2 -8 -10 -19 -18
-24 -9 -5 -16 -18 -16 -28 0 -11 -5 -20 -11 -20 -6 0 -9 -6 -6 -14 3 -8 -1
-17 -9 -20 -9 -3 -12 -10 -9 -16 3 -5 1 -10 -5 -10 -7 0 -9 -7 -6 -16 3 -8 2
-12 -4 -9 -6 3 -10 -3 -10 -15 0 -12 -4 -19 -8 -16 -4 2 -9 -5 -9 -17 -1 -12
-8 -26 -16 -32 -8 -5 -12 -16 -10 -22 3 -7 0 -13 -6 -13 -6 0 -11 -7 -11 -15
0 -8 -5 -15 -11 -15 -5 0 -7 -4 -4 -10 3 -5 1 -10 -6 -10 -8 0 -8 -5 2 -18 7
-9 9 -14 5 -10 -11 9 -49 -49 -41 -62 3 -4 -2 -10 -10 -14 -8 -3 -15 -14 -15
-25 0 -11 -5 -23 -10 -26 -6 -4 -8 -10 -5 -15 3 -4 -2 -11 -11 -14 -9 -4 -14
-13 -10 -21 3 -8 1 -15 -5 -15 -6 0 -8 -4 -4 -9 3 -5 1 -12 -5 -16 -6 -4 -8
-11 -5 -16 4 -5 2 -9 -3 -9 -6 0 -16 -15 -23 -32 -7 -18 -15 -37 -17 -42 -3
-5 2 -6 9 -2 8 4 5 -1 -7 -11 -11 -10 -19 -28 -18 -40 0 -12 -4 -21 -10 -20
-6 1 -10 -8 -10 -20 1 -13 -2 -23 -6 -23 -8 0 -24 -55 -23 -77 0 -7 -3 -10 -8
-7 -8 5 -14 -17 -10 -38 0 -5 -3 -8 -8 -8 -5 0 -11 -10 -14 -22 -3 -13 -15
-49 -26 -82 -11 -32 -18 -62 -15 -67 3 -5 1 -9 -5 -9 -6 0 -7 -7 -4 -17 5 -12
3 -14 -8 -8 -8 5 -11 4 -6 0 8 -9 23 -13 70 -17 15 -1 27 -6 27 -10 0 -4 7 -5
15 -2 9 4 15 0 15 -7 0 -11 3 -11 10 1 5 8 10 10 10 3 0 -6 8 -10 18 -9 9 2
20 -2 25 -8 5 -8 10 -7 16 3 7 10 10 10 13 1 3 -9 47 -13 166 -14 89 -1 162 1
162 4 0 3 20 5 45 5 25 -1 45 3 45 7 0 5 5 6 10 3 6 -3 10 -2 10 2 0 8 21 13
68 16 12 0 22 4 22 8 0 5 9 6 20 4 11 -2 26 2 34 10 7 8 16 11 20 8 3 -3 13 0
23 8 11 9 14 10 9 2 -4 -7 -3 -13 2 -13 6 0 13 7 16 16 3 8 10 12 16 9 5 -3
10 0 10 7 0 9 3 9 10 -2 7 -12 10 -12 10 -1 0 8 6 11 16 7 8 -3 12 -2 9 4 -3
5 6 12 20 16 14 3 25 10 25 15 0 4 9 6 20 4 13 -3 18 0 14 7 -5 8 -1 9 10 5
10 -4 15 -3 11 3 -3 6 -1 11 4 11 6 1 17 2 24 3 6 1 11 7 9 14 -1 7 9 12 24
12 14 0 23 4 19 10 -3 6 1 10 9 10 9 0 16 5 16 10 0 6 3 9 8 8 12 -2 46 15 60
31 11 13 12 13 6 1 -7 -13 -5 -13 9 -1 9 7 14 18 10 23 -3 6 0 8 8 6 8 -3 24
6 37 19 12 13 22 21 22 17 0 -3 6 -1 13 5 8 6 17 8 20 4 4 -3 7 0 7 8 0 8 15
23 33 34 17 10 40 27 50 38 9 11 17 16 17 11 0 -5 7 2 16 14 8 12 20 20 25 17
5 -4 9 1 9 9 0 9 7 16 15 16 8 0 15 4 15 9 0 5 9 13 20 16 11 4 18 10 15 15
-5 8 23 25 38 22 4 -1 6 1 5 5 -5 16 30 55 43 48 8 -5 10 -4 5 4 -4 6 0 14 8
17 9 3 16 12 16 20 0 8 4 13 9 12 4 -2 25 15 45 36 20 22 36 36 36 30 0 -5 6
2 13 16 7 14 19 25 27 25 8 0 14 8 14 17 -1 10 2 16 6 15 9 -3 90 70 83 76 -2
3 5 8 17 12 13 4 19 12 16 21 -3 9 -1 12 4 9 13 -8 171 150 162 161 -4 4 -2 4
4 1 6 -4 22 5 34 18 13 14 29 25 37 25 7 0 12 4 11 9 -3 10 52 61 65 61 5 0 5
5 2 10 -3 6 0 10 7 10 7 0 24 14 38 30 14 17 30 30 37 30 7 0 17 8 22 18 6 9
11 14 11 9 0 -11 80 44 80 55 0 5 4 7 9 4 4 -3 13 6 19 19 7 14 15 25 19 24
20 -3 34 2 28 11 -3 6 -1 10 6 10 7 0 28 12 47 27 20 15 32 21 27 13 -5 -9 -4
-11 3 -6 7 4 12 15 12 24 0 13 2 14 9 3 5 -8 10 -9 12 -3 2 6 10 12 18 14 8 2
23 11 33 21 10 10 24 15 30 11 6 -4 8 -3 4 4 -6 9 16 22 37 22 4 -1 15 6 23
15 8 8 27 18 42 21 15 4 38 13 51 21 18 12 22 12 16 2 -5 -8 3 -4 17 9 13 12
27 19 31 16 4 -4 9 1 13 10 3 9 10 13 15 10 5 -3 9 0 9 6 0 7 7 10 15 6 8 -3
15 -1 15 5 0 6 4 8 9 4 5 -3 13 0 17 6 4 8 9 7 15 -2 7 -11 9 -10 9 5 0 12 5
16 14 13 8 -3 16 -1 18 4 2 6 20 11 40 12 20 1 34 5 32 8 -4 7 45 24 59 21 4
-1 7 2 7 8 0 5 9 10 19 10 11 0 22 6 24 13 4 9 6 9 6 -1 1 -9 6 -10 19 -4 9 5
25 8 35 7 9 -2 17 1 17 7 0 7 5 7 13 -1 8 -6 16 -8 20 -5 3 3 34 7 70 9 36 1
70 6 76 9 6 4 11 1 11 -6 0 -8 3 -9 8 -3 4 6 27 11 52 12 93 3 140 8 140 15 0
4 7 4 17 1 12 -5 14 -3 8 8 -8 12 -6 12 8 0 13 -10 20 -11 30 -2 10 8 17 7 25
-1 8 -8 12 -9 12 -1 0 6 14 10 30 9 17 -1 30 2 30 7 0 5 6 4 14 -2 8 -7 17 -8
20 -3 7 11 134 4 159 -10 15 -8 18 -7 12 3 -6 8 -4 10 6 3 8 -5 25 -10 39 -12
14 -1 32 -5 40 -9 18 -7 25 -9 70 -17 68 -11 84 -16 94 -26 5 -5 22 -10 37
-10 15 0 31 -5 34 -10 3 -6 15 -10 26 -10 10 0 19 -4 19 -8 0 -4 8 -8 18 -9
25 -2 45 -7 60 -16 6 -5 17 -5 22 -2 6 3 10 1 10 -6 0 -8 5 -7 17 2 11 10 14
10 9 2 -5 -9 0 -13 13 -13 12 0 21 -4 21 -10 0 -5 6 -7 13 -4 7 2 26 -2 42
-10 16 -8 32 -13 37 -10 5 3 15 0 23 -6 8 -7 21 -10 29 -7 7 3 19 0 25 -6 6
-6 11 -8 11 -4 0 3 18 0 40 -8 22 -8 40 -12 40 -8 0 3 6 1 13 -5 6 -5 24 -10
40 -11 49 -2 57 -4 57 -13 0 -6 6 -8 13 -5 6 2 22 0 35 -4 14 -5 22 -5 22 2 0
6 6 7 13 2 14 -9 28 -12 74 -15 18 -2 33 -6 33 -9 0 -3 16 -5 35 -4 19 2 35
-2 35 -7 0 -6 6 -5 15 2 8 7 15 8 15 2 0 -5 17 -9 38 -8 20 1 52 -1 70 -5 17
-4 35 -3 38 2 3 5 12 5 22 0 9 -4 38 -7 64 -6 29 1 45 -2 42 -7 -4 -6 3 -5 14
1 27 14 45 14 36 -1 -5 -7 -3 -8 6 -3 7 4 29 9 49 10 20 2 54 4 76 6 22 2 46
0 53 -5 7 -4 12 -3 12 2 0 5 10 8 23 8 12 -1 26 0 32 3 5 3 23 6 40 7 16 1 40
2 53 3 13 0 21 4 19 9 -3 4 26 7 64 7 38 -1 69 2 69 5 0 9 32 6 49 -5 10 -6
12 -4 6 5 -6 10 -4 12 8 7 8 -3 20 0 26 7 6 7 21 12 34 12 12 -1 27 2 33 6 7
5 22 11 34 13 25 5 40 15 23 15 -6 0 -14 7 -17 16 -4 10 -2 13 7 8 9 -6 9 -5
0 8 -7 8 -9 18 -5 22 4 4 0 6 -8 4 -8 -1 -15 2 -15 7 -4 24 -18 44 -28 38 -5
-3 -7 -1 -3 5 3 6 0 17 -9 25 -8 8 -16 21 -17 28 -2 7 -13 25 -26 39 -12 14
-20 31 -17 38 3 7 0 10 -5 7 -10 -6 -15 9 -10 30 1 6 -1 7 -5 3 -7 -7 -56 36
-55 48 1 3 -6 11 -16 18 -11 8 -14 18 -9 26 5 8 4 11 -2 7 -5 -3 -26 11 -45
33 -20 21 -39 36 -42 33 -3 -4 -6 2 -6 12 0 10 -3 16 -6 12 -4 -3 -27 15 -53
42 -25 26 -54 50 -63 54 -10 3 -18 13 -18 22 0 13 -14 21 -23 13 -6 -6 -54 47
-50 54 2 4 -3 5 -11 2 -15 -6 -21 6 -17 29 1 5 -3 6 -8 2 -6 -3 -19 2 -29 12
-10 10 -25 19 -33 21 -8 1 -24 14 -37 29 -17 19 -20 28 -11 34 7 4 19 5 27 1
10 -3 13 -1 8 6 -4 7 -1 12 8 12 9 0 16 5 16 12 0 6 3 9 6 5 4 -3 13 1 21 9 9
8 22 13 30 10 8 -3 11 -1 8 4 -3 5 18 21 47 36 29 15 55 31 56 35 2 5 8 7 13
3 5 -3 12 2 15 10 3 9 10 14 14 11 5 -3 11 -1 15 5 4 6 11 8 16 4 5 -3 8 0 7
8 -2 7 3 12 10 10 6 -1 12 3 12 9 0 6 7 8 17 5 10 -4 14 -4 10 0 -3 4 17 24
46 45 28 21 57 43 64 49 7 5 16 10 21 10 5 0 17 9 27 20 10 11 20 18 22 16 2
-2 18 9 36 25 17 16 33 27 35 24 2 -2 14 7 27 21 12 13 25 24 29 24 3 0 14 8
24 17 10 10 28 24 40 32 11 8 18 19 15 24 -3 6 -1 7 4 4 6 -4 18 2 28 13 10
11 24 20 32 20 8 0 11 5 8 10 -3 6 -2 10 3 10 5 0 36 27 70 59 34 33 62 57 62
54 0 -3 13 9 29 26 16 17 34 31 41 31 6 0 9 4 5 9 -3 6 4 15 15 21 11 6 17 16
14 22 -4 7 -2 8 5 4 12 -8 58 41 53 56 -1 5 1 7 5 6 8 -3 31 18 139 123 33 32
66 59 73 59 7 0 10 4 7 9 -3 5 1 11 9 15 8 3 12 12 9 20 -3 9 1 13 13 13 9 -1
18 5 18 13 2 23 16 50 25 45 4 -2 13 14 20 36 12 37 12 42 -3 50 -9 6 -19 8
-21 7 -3 -2 -12 6 -20 17 -9 11 -16 16 -16 12 0 -4 -11 3 -24 15 -13 13 -21
27 -18 32 3 5 0 6 -7 2 -7 -5 -26 3 -46 18 -18 14 -39 26 -45 26 -6 0 -8 4 -5
10 3 6 -1 7 -9 4 -9 -4 -18 1 -22 10 -3 9 -11 13 -16 10 -6 -4 -13 -3 -17 2
-11 16 -60 44 -76 44 -9 0 -14 4 -11 8 5 8 -83 52 -104 52 -6 0 -10 5 -10 11
0 5 -4 7 -10 4 -5 -3 -10 -1 -10 4 0 6 -3 11 -7 10 -16 -2 -53 14 -53 22 0 5
-5 9 -11 9 -5 0 -7 -6 -3 -12 5 -8 0 -7 -10 2 -10 8 -24 15 -30 15 -16 0 -80
36 -88 49 -4 6 -13 11 -20 11 -31 2 -98 27 -98 37 0 6 -3 8 -6 5 -4 -3 -16 -1
-28 5 -11 6 -33 12 -47 13 -15 1 -34 9 -44 18 -9 9 -27 17 -41 17 -13 0 -24 5
-24 11 0 6 -6 9 -12 7 -7 -3 -24 1 -37 8 -14 7 -28 11 -33 8 -4 -3 -8 0 -8 7
0 7 -3 9 -7 6 -3 -4 -12 -2 -20 4 -9 9 -13 8 -13 0 0 -6 -5 -11 -11 -11 -5 0
-7 5 -4 10 5 9 -23 15 -47 11 -5 0 -8 3 -8 9 0 5 -8 10 -17 10 -10 0 -26 7
-36 15 -11 7 -27 12 -38 10 -10 -2 -19 0 -19 4 0 4 -6 8 -12 9 -24 2 -43 8
-58 17 -8 5 -23 8 -33 7 -10 -2 -25 2 -33 8 -8 7 -14 9 -14 4 0 -5 -5 -2 -10
6 -9 13 -10 13 -10 0 0 -12 -2 -12 -9 -2 -4 7 -23 16 -42 18 -19 3 -38 9 -43
14 -5 5 -15 6 -22 3 -8 -3 -14 0 -14 7 0 6 -5 8 -10 5 -6 -4 -18 -1 -27 7 -14
11 -16 11 -8 -2 8 -13 7 -13 -10 0 -10 8 -26 14 -37 12 -10 -2 -18 1 -18 6 0
5 -11 8 -25 7 -14 -2 -25 2 -25 8 0 5 -3 7 -7 4 -3 -4 -13 -1 -21 6 -13 10
-14 9 -8 -1 7 -11 4 -12 -12 -3 -11 6 -30 11 -41 11 -12 0 -21 4 -21 9 0 5
-12 8 -27 6 -16 -2 -32 0 -38 3 -5 4 -19 7 -30 7 -11 0 -25 4 -30 7 -6 3 -30
9 -54 13 -24 3 -54 11 -68 16 -14 5 -29 7 -34 3 -5 -3 -9 0 -9 5 0 6 -7 11
-16 11 -9 0 -13 -5 -9 -12 4 -7 0 -5 -8 5 -16 19 -32 24 -21 6 4 -8 0 -8 -15
0 -12 7 -26 9 -31 6 -6 -3 -10 -2 -10 3 0 6 -7 13 -16 16 -10 4 -13 2 -8 -7 6
-9 5 -9 -7 0 -9 7 -29 14 -45 16 -17 2 -35 6 -41 10 -6 4 -25 5 -42 3 -16 -2
-32 0 -33 5 -2 4 -22 9 -46 12 -23 2 -48 9 -54 15 -8 8 -15 7 -25 -6 -12 -16
-13 -15 -7 3 5 15 4 17 -5 9 -14 -13 -61 3 -61 21 0 6 -5 3 -10 -5 -5 -8 -10
-10 -10 -4 0 5 -13 9 -30 8 -16 -1 -30 2 -30 8 0 5 -8 8 -18 6 -11 -2 -27 4
-37 12 -11 9 -16 10 -11 3 4 -7 2 -13 -3 -13 -6 0 -11 5 -11 11 0 8 -5 8 -15
-1 -8 -7 -15 -8 -15 -3 0 5 -12 10 -26 11 -15 1 -34 8 -42 15 -13 9 -14 9 -8
0 4 -7 3 -13 -3 -13 -5 0 -12 4 -15 9 -3 4 -17 7 -31 6 -14 -2 -25 0 -25 4 0
4 -14 6 -30 5 -17 -1 -33 2 -36 7 -3 6 -12 5 -22 -3 -13 -11 -14 -11 -8 0 7
11 4 12 -12 3 -15 -8 -21 -8 -24 0 -2 7 -18 13 -36 14 -21 2 -30 -1 -25 -9 4
-7 1 -6 -9 1 -8 7 -18 10 -22 6 -4 -4 -11 -1 -15 6 -5 8 -23 14 -40 15 -18 1
-36 8 -41 16 -7 11 -10 11 -10 2 0 -7 -5 -10 -10 -7 -19 12 -160 12 -160 1 0
-6 -5 -4 -10 4 -5 8 -10 11 -10 6 0 -5 -6 -3 -13 3 -8 6 -17 8 -20 4 -4 -3 -7
-1 -7 6 0 7 -6 11 -12 8 -7 -2 -24 0 -38 6 -29 11 -48 15 -112 21 -26 3 -52 7
-58 11 -5 3 -10 0 -10 -7 0 -8 -3 -9 -8 -3 -4 6 -22 11 -39 10 -18 0 -33 3
-33 7 0 4 -16 6 -35 4 -19 -1 -35 2 -35 7 0 5 -6 7 -14 4 -7 -3 -19 0 -26 6
-10 9 -11 9 -5 -3 7 -12 6 -13 -6 -4 -8 5 -23 10 -34 10 -11 -1 -23 4 -27 9
-5 6 -8 6 -8 -2 0 -8 -9 -9 -31 -3 -18 5 -35 7 -40 5 -4 -3 -9 -1 -11 5 -1 5
-29 11 -60 11 -32 1 -58 5 -58 8 0 4 -13 6 -30 5 -16 -1 -30 2 -30 7 0 6 -7 6
-18 0 -11 -6 -24 -6 -33 -1 -7 5 -22 7 -31 4 -10 -3 -18 -2 -18 3 0 4 -12 8
-27 9 -64 2 -140 11 -152 19 -8 4 -17 2 -22 -6 -7 -11 -9 -11 -9 -1 0 7 -4 11
-10 7 -5 -3 -27 12 -49 34 -22 22 -42 36 -46 33 -4 -4 -5 -2 -3 3 2 6 -16 30
-39 54 -24 23 -43 47 -43 52 0 6 -4 8 -8 5 -10 -6 -43 30 -35 38 4 3 0 6 -7 6
-8 0 -31 18 -51 40 -21 22 -40 40 -44 40 -3 0 -26 19 -50 43 -52 50 -86 77
-97 77 -4 0 -8 7 -8 16 0 8 -4 13 -9 10 -5 -3 -14 1 -21 9 -7 8 -16 12 -21 9
-5 -3 -8 0 -7 8 2 7 -5 12 -15 11 -10 0 -16 1 -13 4 7 8 -45 53 -60 53 -7 0
-15 7 -18 16 -4 9 -13 14 -21 10 -8 -3 -14 -2 -12 2 1 4 -2 8 -7 9 -5 1 -12 5
-15 10 -15 22 -81 64 -91 58 -6 -3 -10 3 -10 14 0 12 -7 21 -15 21 -8 0 -15 5
-15 10 0 6 -7 10 -15 10 -8 0 -15 7 -15 16 0 8 -5 12 -11 8 -6 -3 -15 -1 -19
5 -4 7 -16 13 -28 14 -11 0 -18 5 -16 9 3 4 -2 8 -10 8 -9 0 -16 5 -16 10 0 6
-7 10 -15 10 -7 0 -18 7 -23 16 -5 9 -12 16 -15 15 -11 -1 -42 12 -47 20 -3 4
-14 9 -25 11 -10 1 -27 11 -37 21 -10 10 -23 15 -28 12 -6 -4 -10 -1 -10 6 0
7 -3 10 -6 6 -4 -3 -13 1 -21 9 -8 8 -19 12 -24 9 -5 -4 -9 -2 -9 4 0 8 -40
27 -48 22 -1 -1 -10 5 -18 14 -9 8 -24 15 -34 15 -10 0 -20 4 -22 9 -1 6 -18
13 -37 16 -19 3 -39 9 -45 13 -14 8 -32 12 -78 16 -21 2 -45 9 -55 17 -11 9
-14 10 -9 2 4 -8 2 -13 -6 -14 -7 0 -33 -1 -58 -2 -45 -2 -120 -39 -120 -59 0
-6 -7 -5 -17 3 -10 9 -14 9 -10 2 5 -7 -1 -16 -13 -23 -11 -6 -20 -18 -20 -26
0 -9 -5 -12 -12 -8 -9 5 -9 2 1 -9 8 -10 9 -17 3 -17 -6 0 -11 -8 -11 -17 0
-10 -2 -46 -4 -80 -2 -38 0 -63 6 -63 5 0 7 -9 4 -20 -3 -11 -2 -18 2 -15 10
5 32 -65 25 -77 -3 -4 0 -8 6 -8 13 0 42 -66 42 -97 0 -13 4 -20 9 -17 5 3 9
1 9 -5 0 -5 -6 -12 -12 -14 -9 -4 -7 -6 3 -6 15 -1 18 -7 21 -53 1 -13 8 -29
15 -36 7 -7 10 -19 7 -27 -4 -8 1 -17 9 -21 9 -3 13 -12 11 -19 -3 -7 1 -26 9
-42 10 -19 12 -34 6 -45 -6 -11 -6 -19 1 -23 5 -3 10 -12 10 -18 0 -7 -4 -6
-10 3 -8 13 -10 13 -10 -1 0 -9 -9 -19 -20 -22 -13 -3 -18 -1 -13 6 4 6 -1 8
-15 5 -12 -3 -23 0 -26 7 -3 8 -21 12 -50 10 -25 -1 -46 3 -46 8 0 5 -7 7 -15
4 -8 -4 -17 -3 -19 2 -3 4 -31 7 -63 7 -32 -1 -60 2 -63 6 -3 4 -21 8 -40 9
-19 2 -43 6 -52 11 -13 6 -18 5 -18 -4 0 -8 -3 -9 -8 -3 -4 6 -18 11 -32 13
-14 2 -36 5 -50 8 -14 3 -37 7 -52 9 -25 4 -107 43 -118 56 -3 4 -15 9 -27 13
-13 4 -23 13 -23 21 0 7 -6 12 -12 12 -20 -2 -107 56 -108 71 0 7 -4 11 -8 8
-9 -5 -64 28 -63 38 1 3 0 5 -2 4 -2 -2 -15 10 -30 26 -15 16 -27 26 -27 23 0
-4 -9 1 -19 10 -11 9 -17 21 -14 27 3 6 3 8 -1 4 -5 -4 -18 3 -30 15 -13 12
-38 33 -56 47 -18 14 -38 30 -44 36 -6 6 -30 19 -53 29 -23 10 -40 22 -37 27
3 4 -2 5 -10 2 -9 -3 -16 -1 -16 5 0 6 -7 11 -15 11 -8 0 -15 3 -15 8 0 4 -18
15 -40 25 -22 9 -40 21 -40 27 0 5 -7 6 -17 3 -11 -4 -14 -3 -9 5 5 8 0 12
-13 12 -12 0 -21 5 -21 11 0 5 -4 8 -9 5 -5 -3 -14 1 -21 9 -7 8 -21 15 -31
15 -11 0 -19 5 -19 11 0 5 -4 7 -10 4 -5 -3 -10 -1 -10 5 0 6 -6 10 -12 8 -7
-1 -27 6 -45 15 -24 13 -33 14 -36 4 -4 -9 -6 -9 -6 1 -1 6 -12 12 -26 12 -14
0 -25 5 -25 12 0 6 -6 4 -12 -5 -12 -15 -16 -15 -41 -2 -16 8 -25 9 -21 3 5
-7 2 -9 -9 -5 -9 3 -18 1 -21 -6 -3 -9 -5 -8 -5 1 -1 10 -5 10 -23 0 -13 -6
-27 -13 -33 -14 -5 -1 -18 -5 -28 -9 -37 -15 -15 14 26 33 23 11 52 30 64 41
12 12 30 23 40 24 29 6 77 27 83 37 3 5 15 11 25 13 11 1 25 5 30 8 6 4 18 5
28 4 9 -2 15 1 11 6 -3 5 4 9 15 9 12 0 21 5 21 11 0 5 4 8 9 4 5 -3 12 -1 16
5 4 6 11 8 16 5 5 -4 9 -2 9 4 0 6 8 7 18 4 14 -6 15 -4 5 8 -10 12 -8 15 7
15 10 0 16 -5 12 -11 -3 -5 2 -4 11 4 14 11 17 11 17 0 1 -10 3 -9 10 3 6 10
20 15 35 13 16 -1 25 3 25 11 0 8 6 11 17 7 12 -5 14 -3 8 7 -5 8 -4 11 2 7
19 -12 63 -16 63 -5 0 6 7 5 17 -3 9 -8 18 -13 19 -11 2 2 17 7 34 12 21 6 30
5 30 -3 0 -9 2 -9 8 -1 4 6 14 11 22 12 18 1 98 11 120 15 8 1 20 5 25 8 6 3
17 5 25 4 8 0 21 5 28 12 8 7 18 11 23 8 5 -4 9 1 9 10 0 9 3 14 8 12 4 -3 13
1 20 9 7 8 10 14 5 14 -4 0 2 7 13 16 10 8 12 12 4 8 -12 -7 -13 -5 -3 8 7 8
10 18 6 21 -3 4 -1 7 6 7 7 0 9 5 5 12 -4 6 -9 25 -10 42 -6 56 -7 61 -18 68
-13 9 -7 15 19 20 11 1 23 7 26 12 4 4 15 3 26 -2 11 -6 25 -7 33 -2 9 6 17 5
21 -2 6 -9 11 -9 21 0 9 7 19 8 28 2 8 -6 33 -10 56 -10 22 0 44 -3 47 -6 4
-4 30 -9 59 -11 51 -4 93 -10 93 -13 0 -6 117 -19 187 -21 21 -1 36 -5 33 -9
-4 -7 17 -7 35 0 3 1 39 1 80 0 156 -6 228 -5 223 3 -2 4 0 7 6 7 5 0 13 -5
16 -10 4 -6 12 -7 18 -3 7 4 21 8 32 10 22 2 60 11 60 13 0 1 25 4 55 7 51 4
169 55 178 75 2 5 8 6 13 2 5 -3 12 2 15 10 3 9 10 13 15 10 5 -3 9 0 9 6 0 6
5 8 10 5 6 -4 9 -1 8 7 -2 7 3 12 9 11 7 -2 12 1 10 5 -2 9 54 68 63 65 4 -1
7 3 7 10 1 7 4 30 8 52 10 59 6 116 -10 163 -3 9 -21 28 -39 42 -19 14 -32 29
-28 34 3 5 0 6 -6 2 -6 -4 -19 2 -29 14 -10 11 -21 20 -25 20 -4 0 -18 10 -31
23 -31 27 -101 77 -146 103 -19 10 -62 45 -95 77 -33 31 -61 57 -63 57 -2 0
-13 9 -25 20 -12 10 -25 17 -30 14 -4 -3 -8 3 -8 12 0 10 -3 15 -6 12 -6 -7
-54 39 -54 52 0 6 -6 10 -14 10 -8 0 -18 9 -21 20 -3 11 -11 20 -17 20 -6 0
-9 3 -6 6 4 3 2 19 -2 35 -5 16 -5 29 -1 29 4 0 5 14 3 31 -3 19 -1 29 5 26 5
-3 9 9 8 29 -1 18 1 34 5 34 3 0 5 13 2 28 -2 16 2 35 10 43 8 8 14 43 16 84
4 106 6 125 16 125 5 0 7 3 3 6 -3 3 -2 17 3 29 6 16 5 25 -3 29 -9 3 -9 5 1
5 6 1 12 12 12 25 0 14 5 28 10 31 6 4 7 11 4 17 -4 6 0 14 7 19 12 7 12 9 0
9 -10 0 -10 6 4 26 9 14 14 32 11 40 -3 8 -1 14 4 14 5 0 7 7 4 15 -4 8 -1 15
5 15 6 0 8 7 4 17 -5 12 -3 14 8 8 12 -8 12 -6 0 8 -10 13 -10 17 -1 17 7 0
10 7 6 15 -3 8 -1 15 5 15 6 0 7 5 4 10 -3 6 -2 10 4 10 5 0 8 11 7 25 -2 13
0 22 4 20 8 -5 23 36 25 63 0 7 6 17 13 21 8 5 13 11 13 15 -2 25 33 50 89 62
8 2 16 8 18 13 2 6 10 11 18 11 8 0 14 4 14 8 0 5 11 15 25 22 13 7 22 17 19
22 -3 4 1 8 10 8 8 0 25 17 37 38 13 20 27 40 32 43 5 4 6 12 2 19 -5 9 -4 11
3 6 11 -6 15 5 11 30 0 4 5 11 13 15 11 7 11 9 0 9 -10 0 -9 4 3 16 13 13 13
19 3 32 -11 13 -11 14 1 8 10 -7 12 -3 6 13 -4 14 -2 21 7 21 9 0 9 3 2 8 -6
4 -11 28 -10 55 1 26 -1 47 -4 47 -3 0 -5 50 -5 110 0 61 2 110 5 110 4 0 7
10 7 23 1 12 4 40 8 62 3 22 6 48 6 58 0 9 4 15 9 12 6 -3 7 0 4 8 -3 8 0 18
6 22 8 5 8 11 -1 21 -9 11 -9 14 1 14 7 0 10 7 7 15 -4 8 -2 17 4 20 5 4 7 10
4 15 -3 5 -1 11 5 15 6 4 8 11 5 16 -4 5 2 9 12 9 15 0 16 2 3 11 -11 8 -12
12 -2 16 6 2 9 9 6 14 -3 6 0 17 7 25 6 8 9 17 6 21 -3 3 0 21 8 40 10 24 11
32 2 26 -7 -4 -4 5 6 20 9 15 16 27 13 27 -2 0 0 16 4 35 4 19 4 37 -1 40 -4
3 -6 12 -3 19 3 8 -6 32 -20 55 -14 22 -26 46 -26 53 0 9 -3 8 -10 -2 -8 -13
-10 -12 -10 4 0 11 -3 17 -6 13 -3 -3 -23 3 -42 14 -20 10 -45 19 -55 19 -10
0 -16 4 -13 9 3 4 -10 7 -29 6 -28 -1 -32 1 -24 12 7 7 9 13 6 13 -2 0 -10 -7
-17 -15z m-785 -807 c3 -3 -1 -11 -10 -18 -8 -7 -15 -11 -16 -9 -6 31 -5 37 7
35 7 -1 16 -5 19 -8z m1300 -3447 c3 -5 2 -12 -3 -15 -5 -3 -9 1 -9 9 0 17 3
19 12 6z m-3265 -2476 c5 3 11 1 14 -4 4 -5 -2 -8 -11 -7 -9 2 -18 8 -19 15
-1 6 0 7 3 1 2 -5 9 -8 13 -5z m190 -165 c0 -5 -2 -10 -4 -10 -3 0 -8 5 -11
10 -3 6 -1 10 4 10 6 0 11 -4 11 -10z"/>
</g>
</svg>
